<?xml version="1.0" encoding="utf-8"?>
<!-- Generator: Adobe Illustrator 25.1.0, SVG Export Plug-In . SVG Version: 6.00 Build 0)  -->
<svg version="1.1" id="Layer_1" xmlns="http://www.w3.org/2000/svg" xmlns:xlink="http://www.w3.org/1999/xlink" x="0px" y="0px"
	 viewBox="0 0 100 100" style="enable-background:new 0 0 100 100;" xml:space="preserve">
<style type="text/css">
	.st0{fill:#D5E3E0;}
	.st1{fill:#808285;}
	.st2{fill:#939598;}
	.st3{fill:#58595B;}
	.st4{fill:#414042;}
	.st5{fill:#F1F2F2;}
	.st6{fill:#D1D3D4;}
	.st7{fill:#2C2D84;}
	.st8{fill:#4D56A5;}
	.st9{fill:#F8C577;}
	.st10{fill:#F8AF3F;}
	.st11{fill:#778B39;}
	.st12{fill:#7E5A24;}
	.st13{fill:#4FAB58;}
	.st14{fill:#2A8F63;}
</style>
<circle class="st0" cx="50" cy="50" r="50"/>
<path class="st1" d="M27.4,73.6c0,1.4,1.1,2.5,2.5,2.5h40.3c1.4,0,2.5-1.1,2.5-2.5V26.4c0-1.4-1.1-2.5-2.5-2.5H29.9
	c-1.4,0-2.5,1.1-2.5,2.5V73.6z"/>
<path class="st2" d="M28.8,52.2c-0.3,0-0.5-0.2-0.5-0.5c0-0.3,0.2-0.5,0.5-0.5c0.3,0,0.5,0.2,0.5,0.5C29.3,52,29.1,52.2,28.8,52.2z
	 M28.8,50.2c-0.3,0-0.5-0.2-0.5-0.5V26.5c0-0.8,0.7-1.5,1.5-1.5H37c0.3,0,0.5,0.2,0.5,0.5c0,0.3-0.2,0.5-0.5,0.5h-7.1
	c-0.3,0-0.5,0.2-0.5,0.5v23.3C29.3,50,29.1,50.2,28.8,50.2z"/>
<path class="st3" d="M70.1,23.9v47.1c0,1.4-1.1,2.5-2.5,2.5H27.4c0,1.4,1.1,2.5,2.5,2.5h40.3c1.4,0,2.5-1.1,2.5-2.5V26.4
	C72.6,25.1,71.5,23.9,70.1,23.9z"/>
<path class="st4" d="M71.2,24.2c0.1,0.3,0.2,0.7,0.2,1v47.1c0,1.4-1.1,2.5-2.5,2.5H28.6c-0.4,0-0.7-0.1-1-0.2
	c0.4,0.9,1.3,1.5,2.3,1.5h40.3c1.4,0,2.5-1.1,2.5-2.5V26.4C72.6,25.4,72,24.6,71.2,24.2z"/>
<path class="st5" d="M34.4,68.6c-0.6,0-1-0.4-1-1V31.1c0-0.6,0.4-1,1-1h31.5c0.6,0,1,0.4,1,1v36.5c0,0.6-0.4,1-1,1H34.4z"/>
<path class="st6" d="M65.9,30.1h-1.5v35c0,0.6-0.4,1-1,1h-30v1.5c0,0.6,0.4,1,1,1h31.5c0.6,0,1-0.4,1-1V31.1
	C66.9,30.6,66.4,30.1,65.9,30.1z"/>
<path class="st3" d="M54.2,72.1h-5.9c-0.5,0-0.9-0.4-0.9-0.9c0-0.5,0.4-0.9,0.9-0.9h5.9c0.5,0,0.9,0.4,0.9,0.9
	C55.1,71.7,54.7,72.1,54.2,72.1z"/>
<path class="st7" d="M61.4,62.3H38.6c-0.6,0-1-0.4-1-1V54c0-0.6,0.4-1,1-1h22.9c0.6,0,1,0.4,1,1v7.2C62.4,61.8,62,62.3,61.4,62.3z"
	/>
<path class="st8" d="M61.4,53h-0.3v7c0,0.6-0.4,1-1,1H37.6v0.3c0,0.6,0.4,1,1,1h22.9c0.6,0,1-0.4,1-1V54C62.4,53.5,62,53,61.4,53z"
	/>
<path class="st9" d="M59.7,65.6l-4-4l2.4-1.6c0.3-0.2,0.2-0.7-0.2-0.8l-8.1-1.9c-0.3-0.1-0.6,0.2-0.6,0.6l1.9,8.1
	c0.1,0.4,0.6,0.5,0.8,0.2l1.6-2.4l4,4c0.2,0.2,0.5,0.2,0.7,0l1.4-1.4C59.9,66.1,59.9,65.8,59.7,65.6z"/>
<path class="st10" d="M54.5,60.4l1.3,1.3l2.4-1.6c0.3-0.2,0.2-0.7-0.2-0.8l-1.3-0.3L54.5,60.4z"/>
<path class="st10" d="M59.7,65.6l-1.3-1.3c0.2,0.2,0.2,0.5,0,0.7l-1.4,1.4c-0.2,0.2-0.5,0.2-0.7,0l-4-4L51,64.6l0.3,1.3
	c0.1,0.4,0.6,0.5,0.8,0.2l1.6-2.4l4,4c0.2,0.2,0.5,0.2,0.7,0l1.4-1.4C59.9,66.1,59.9,65.8,59.7,65.6z"/>
<path class="st11" d="M50,52c-0.3,0-0.6-0.3-0.6-0.6V40.4c0-0.3,0.3-0.6,0.6-0.6c0.3,0,0.6,0.3,0.6,0.6v10.9
	C50.6,51.7,50.3,52,50,52z"/>
<path class="st11" d="M50,50.3c-0.2,0-0.3-0.1-0.4-0.2l-2.2-2.2c-0.2-0.2-0.2-0.6,0-0.9c0.2-0.2,0.6-0.2,0.9,0l1.8,1.8l1.8-1.8
	c0.2-0.2,0.6-0.2,0.9,0c0.2,0.2,0.2,0.6,0,0.9l-2.2,2.2C50.3,50.3,50.2,50.3,50,50.3z"/>
<path class="st12" d="M50,46.1c-0.2,0-0.3-0.1-0.4-0.2l-5.1-5.1c-0.2-0.2-0.2-0.6,0-0.9c0.2-0.2,0.6-0.2,0.9,0l4.6,4.6l4.6-4.6
	c0.2-0.2,0.6-0.2,0.9,0c0.2,0.2,0.2,0.6,0,0.9l-5.1,5.1C50.3,46,50.2,46.1,50,46.1z"/>
<path class="st13" d="M44.2,43.5c-0.2,0-0.4,0.2-0.4,0.4c0,0.7,0,2.4,1.1,3.5c1,1,2.7,1.1,3.5,1.1c0.2,0,0.4-0.2,0.4-0.4
	c0-0.7,0-2.4-1.1-3.5C46.6,43.5,44.9,43.5,44.2,43.5z"/>
<path class="st14" d="M47.6,44.6c-0.2-0.2-0.5-0.4-0.7-0.5c0.5,1,0.6,2.2,0.5,2.7c0,0.2-0.2,0.4-0.4,0.4c-0.6,0-1.8,0-2.7-0.5
	c0.1,0.3,0.3,0.5,0.5,0.7c1,1,2.7,1.1,3.5,1.1c0.2,0,0.4-0.2,0.4-0.4C48.7,47.3,48.7,45.6,47.6,44.6z"/>
<path class="st11" d="M55.8,43.5c0.2,0,0.4,0.2,0.4,0.4c0,0.7,0,2.4-1.1,3.5c-1,1-2.7,1.1-3.5,1.1c-0.2,0-0.4-0.2-0.4-0.4
	c0-0.7,0-2.4,1.1-3.5C53.4,43.5,55.1,43.5,55.8,43.5z"/>
<path class="st14" d="M56.2,43.9c0-0.2-0.2-0.4-0.4-0.4c-0.2,0-0.5,0-0.9,0c-0.1,0.8-0.3,1.9-1,2.6c-0.7,0.7-1.8,1-2.6,1
	c0,0.4,0,0.7,0,0.9c0,0.2,0.2,0.4,0.4,0.4c0.7,0,2.4,0,3.5-1.1C56.2,46.3,56.2,44.6,56.2,43.9z"/>
<path class="st13" d="M49.7,41.9c0.1,0.1,0.4,0.1,0.5,0c0.7-0.6,2.6-2.5,2.6-4.7c0-2.2-1.9-4.1-2.6-4.7c-0.1-0.1-0.4-0.1-0.5,0
	c-0.7,0.6-2.6,2.5-2.6,4.7C47.2,39.4,49,41.3,49.7,41.9z"/>
<path class="st14" d="M51.6,33.9c0.3,0.6,0.5,1.3,0.5,2c0,2.2-1.9,4.1-2.6,4.7c-0.1,0.1-0.4,0.1-0.5,0c-0.3-0.3-0.8-0.8-1.3-1.5
	c0.6,1.3,1.6,2.3,2.1,2.7c0.1,0.1,0.4,0.1,0.5,0c0.7-0.6,2.6-2.5,2.6-4.7C52.8,36,52.2,34.8,51.6,33.9z"/>
<path class="st13" d="M58.1,37c0.2,0,0.4,0.2,0.4,0.4c0,0.7,0,2.4-1.1,3.5c-1,1-2.7,1.1-3.5,1.1c-0.2,0-0.4-0.2-0.4-0.4
	c0-0.7,0-2.4,1.1-3.5C55.7,37,57.4,36.9,58.1,37z"/>
<path class="st14" d="M58.5,37.3c0-0.2-0.2-0.4-0.4-0.4c-0.2,0-0.5,0-0.9,0c-0.1,0.8-0.3,1.9-1,2.6c-0.7,0.7-1.8,1-2.6,1
	c0,0.4,0,0.7,0,0.9c0,0.2,0.2,0.4,0.4,0.4c0.7,0,2.4,0,3.5-1.1C58.5,39.8,58.5,38.1,58.5,37.3z"/>
<path class="st13" d="M41.9,37c-0.2,0-0.4,0.2-0.4,0.4c0,0.7,0,2.4,1.1,3.5c1,1,2.7,1.1,3.5,1.1c0.2,0,0.4-0.2,0.4-0.4
	c0-0.7,0-2.4-1.1-3.5C44.3,37,42.6,36.9,41.9,37z"/>
<path class="st14" d="M45.3,38c-0.2-0.2-0.5-0.4-0.7-0.5c0.5,1,0.6,2.2,0.5,2.7c0,0.2-0.2,0.4-0.4,0.4c-0.6,0-1.8,0-2.7-0.5
	c0.1,0.3,0.3,0.5,0.5,0.7c1,1,2.7,1.1,3.5,1.1c0.2,0,0.4-0.2,0.4-0.4C46.4,40.8,46.4,39.1,45.3,38z"/>
</svg>
