<?xml version="1.0" encoding="utf-8"?>
<!-- Generator: Adobe Illustrator 25.1.0, SVG Export Plug-In . SVG Version: 6.00 Build 0)  -->
<svg version="1.1" id="Group_16" xmlns="http://www.w3.org/2000/svg" xmlns:xlink="http://www.w3.org/1999/xlink" x="0px" y="0px"
	 viewBox="0 0 100 100" style="enable-background:new 0 0 100 100;" xml:space="preserve">
<style type="text/css">
	.st0{clip-path:url(#SVGID_2_);}
	.st1{clip-path:url(#SVGID_4_);}
	.st2{fill:#D5E3E0;}
	.st3{fill:#FFFFFF;}
	.st4{fill:#1A4A9F;}
	.st5{opacity:0.2;}
	.st6{clip-path:url(#SVGID_6_);}
	.st7{fill:#2A8F63;}
	.st8{fill:#F8AF3F;}
	.st9{fill:#7DBA56;}
	.st10{fill:#CCD1D9;}
	.st11{fill:#95A0B3;}
	.st12{fill:#EDF7F5;}
	.st13{clip-path:url(#SVGID_8_);}
	.st14{clip-path:url(#SVGID_10_);}
	.st15{clip-path:url(#SVGID_12_);}
	.st16{fill:#469D77;}
	.st17{fill:#B1CD54;}
</style>
<g>
	<defs>
		<rect id="SVGID_1_" width="100" height="100"/>
	</defs>
	<clipPath id="SVGID_2_">
		<use xlink:href="#SVGID_1_"  style="overflow:visible;"/>
	</clipPath>
	<g id="Group_15" class="st0">
		<g id="Group_14">
			<g>
				<defs>
					<rect id="SVGID_3_" width="100" height="100"/>
				</defs>
				<clipPath id="SVGID_4_">
					<use xlink:href="#SVGID_3_"  style="overflow:visible;"/>
				</clipPath>
				<g id="Group_13" class="st1">
					<path id="Path_1" class="st2" d="M100,50c0,27.6-22.4,50-50,50S0,77.6,0,50S22.4,0,50,0S100,22.4,100,50"/>
					<path id="Path_2" class="st3" d="M76,76.5h3c1.1,0,2-0.9,2-2v-47H19v47c0,1.1,0.9,2,2,2c0,0,0,0,0,0H76z"/>
					<path id="Rectangle_1" class="st4" d="M23.5,65.5h53c0.6,0,1,0.4,1,1v3c0,0.6-0.4,1-1,1h-53c-0.6,0-1-0.4-1-1v-3
						C22.5,65.9,22.9,65.5,23.5,65.5z"/>
					<g id="Group_3" class="st5">
						<g id="Group_2">
							<g>
								<defs>
									<rect id="SVGID_5_" x="38" y="31.5" width="24" height="24"/>
								</defs>
								<clipPath id="SVGID_6_">
									<use xlink:href="#SVGID_5_"  style="overflow:visible;"/>
								</clipPath>
								<g id="Group_1" class="st6">
									<path id="Path_3" class="st7" d="M50,31.5c-6.6,0-12,5.4-12,12c0,6.6,5.4,12,12,12h0c6.6,0,12-5.4,12-12S56.6,31.5,50,31.5
										"/>
								</g>
							</g>
						</g>
					</g>
					<path id="Path_4" class="st4" d="M81,25.5v2H19v-2c0-1.1,0.9-2,2-2h58C80.1,23.5,81,24.4,81,25.5C81,25.5,81,25.5,81,25.5"/>
					<path id="Path_5" class="st8" d="M70.5,33.5c3,0,5.5,2.4,5.5,5.5c0,1.5-0.6,2.9-1.6,3.9L71.6,40c0.3-0.3,0.4-0.7,0.4-1.1
						c0-0.8-0.7-1.5-1.5-1.5V33.5z"/>
					<path id="Path_6" class="st9" d="M71.6,40l2.8,2.8c-2.1,2.1-5.6,2.1-7.8,0s-2.1-5.6,0-7.8c1-1,2.4-1.6,3.9-1.6v4
						c-0.8,0-1.5,0.7-1.5,1.5s0.7,1.5,1.5,1.5C70.9,40.5,71.3,40.3,71.6,40"/>
					<path id="Path_7" class="st8" d="M30.6,40l2.8,2.8c-2.1,2.2-5.6,2.2-7.8,0s-2.2-5.6,0-7.8c1-1,2.4-1.6,3.9-1.6v4
						c-0.8,0-1.5,0.7-1.5,1.5s0.7,1.5,1.5,1.5C29.9,40.5,30.3,40.3,30.6,40"/>
					<path id="Path_8" class="st9" d="M29.5,33.5c3,0,5.5,2.5,5.5,5.5c0,1.5-0.6,2.9-1.6,3.9L30.6,40c0.3-0.3,0.4-0.7,0.4-1.1
						c0-0.8-0.7-1.5-1.5-1.5V33.5z"/>
					<path id="Path_9" class="st3" d="M22,26.5c-0.6,0-1-0.4-1-1c0-0.6,0.4-1,1-1h0c0.6,0,1,0.4,1,1S22.6,26.5,22,26.5"/>
					<path id="Path_10" class="st3" d="M25,26.5c-0.6,0-1-0.4-1-1c0-0.6,0.4-1,1-1h0c0.6,0,1,0.4,1,1S25.6,26.5,25,26.5"/>
					<path id="Path_11" class="st3" d="M28,26.5c-0.6,0-1-0.4-1-1c0-0.6,0.4-1,1-1h0c0.6,0,1,0.4,1,1S28.6,26.5,28,26.5"/>
					<path id="Path_12" class="st10" d="M73,54.5h-5c-0.6,0-1-0.4-1-1s0.4-1,1-1h5c0.6,0,1,0.4,1,1S73.6,54.5,73,54.5"/>
					<path id="Path_13" class="st10" d="M62,59.5H38c-0.6,0-1-0.4-1-1s0.4-1,1-1h24c0.6,0,1,0.4,1,1S62.6,59.5,62,59.5"/>
					<path id="Path_14" class="st10" d="M57,62.5H43c-0.6,0-1-0.4-1-1s0.4-1,1-1h14c0.6,0,1,0.4,1,1S57.6,62.5,57,62.5"/>
					<path id="Path_15" class="st10" d="M75.8,51.5H65c-0.6,0-1-0.4-1-1s0.4-1,1-1h10.8c0.6,0,1,0.4,1,1S76.4,51.5,75.8,51.5"/>
					<path id="Path_16" class="st11" d="M75.8,48.5H65c-0.6,0-1-0.4-1-1s0.4-1,1-1h10.8c0.6,0,1,0.4,1,1S76.4,48.5,75.8,48.5"/>
					<path id="Path_17" class="st10" d="M32,54.5h-5c-0.6,0-1-0.4-1-1s0.4-1,1-1h5c0.6,0,1,0.4,1,1S32.6,54.5,32,54.5"/>
					<path id="Path_18" class="st10" d="M34.9,51.5H24.1c-0.6,0-1-0.4-1-1s0.4-1,1-1h10.8c0.6,0,1,0.4,1,1S35.5,51.5,34.9,51.5"/>
					<path id="Path_19" class="st11" d="M34.9,48.5H24.1c-0.6,0-1-0.4-1-1s0.4-1,1-1h10.8c0.6,0,1,0.4,1,1S35.5,48.5,34.9,48.5"/>
					<path id="Path_20" class="st9" d="M31,59.5c-0.6,0-1-0.4-1-1c0-0.6,0.4-1,1-1h0c0.6,0,1,0.4,1,1S31.6,59.5,31,59.5"/>
					<path id="Path_21" class="st8" d="M28,59.5c-0.6,0-1-0.4-1-1c0-0.6,0.4-1,1-1h0c0.6,0,1,0.4,1,1S28.6,59.5,28,59.5"/>
					<path id="Path_22" class="st8" d="M72.1,59.5c-0.6,0-1-0.4-1-1s0.4-1,1-1h0c0.6,0,1,0.4,1,1S72.6,59.5,72.1,59.5"/>
					<path id="Path_23" class="st9" d="M69.1,59.5c-0.6,0-1-0.4-1-1s0.4-1,1-1h0c0.6,0,1,0.4,1,1S69.6,59.5,69.1,59.5"/>
					<rect id="Rectangle_3" x="36.5" y="68.5" class="st12" width="13" height="8"/>
					<rect id="Rectangle_4" x="50.5" y="68.5" class="st12" width="13" height="8"/>
					<rect id="Rectangle_5" x="22.5" y="68.5" class="st12" width="13" height="8"/>
					<g id="Group_6" class="st5">
						<g id="Group_5">
							<g>
								<defs>
									<rect id="SVGID_7_" x="35.5" y="65.5" width="1" height="3"/>
								</defs>
								<clipPath id="SVGID_8_">
									<use xlink:href="#SVGID_7_"  style="overflow:visible;"/>
								</clipPath>
								<g id="Group_4" class="st13">
									<rect id="Rectangle_6" x="35.5" y="65.5" class="st7" width="1" height="3"/>
								</g>
							</g>
						</g>
					</g>
					<rect id="Rectangle_8" x="35.5" y="68.5" class="st4" width="1" height="8"/>
					<g id="Group_9" class="st5">
						<g id="Group_8">
							<g>
								<defs>
									<rect id="SVGID_9_" x="49.5" y="65.5" width="1" height="3"/>
								</defs>
								<clipPath id="SVGID_10_">
									<use xlink:href="#SVGID_9_"  style="overflow:visible;"/>
								</clipPath>
								<g id="Group_7" class="st14">
									<rect id="Rectangle_9" x="49.5" y="65.5" class="st7" width="1" height="3"/>
								</g>
							</g>
						</g>
					</g>
					<rect id="Rectangle_11" x="49.5" y="68.5" class="st4" width="1" height="8"/>
					<g id="Group_12" class="st5">
						<g id="Group_11">
							<g>
								<defs>
									<rect id="SVGID_11_" x="63.5" y="65.5" width="1" height="3"/>
								</defs>
								<clipPath id="SVGID_12_">
									<use xlink:href="#SVGID_11_"  style="overflow:visible;"/>
								</clipPath>
								<g id="Group_10" class="st15">
									<rect id="Rectangle_12" x="63.5" y="65.5" class="st7" width="1" height="3"/>
								</g>
							</g>
						</g>
					</g>
					<rect id="Rectangle_14" x="63.5" y="68.5" class="st4" width="1" height="8"/>
					<rect id="Rectangle_15" x="64.5" y="68.5" class="st12" width="13" height="8"/>
					<path id="Path_24" class="st7" d="M50,55.2c-0.2,0-0.4-0.2-0.4-0.4V40.4c0-0.2,0.2-0.4,0.4-0.3c0.2,0,0.3,0.2,0.3,0.3v14.4
						C50.4,55.1,50.2,55.2,50,55.2"/>
					<path id="Path_25" class="st7" d="M50,53.1c-0.1,0-0.2,0-0.3-0.1L46.8,50c-0.1-0.1-0.1-0.4,0-0.5s0.4-0.1,0.5,0l2.7,2.7
						l2.7-2.7c0.1-0.1,0.4-0.1,0.5,0s0.1,0.4,0,0.5L50.3,53C50.2,53,50.1,53.1,50,53.1L50,53.1z"/>
					<path id="Path_26" class="st7" d="M50,47.5c-0.1,0-0.2,0-0.3-0.1L43,40.7c-0.1-0.1-0.1-0.4,0-0.5s0.4-0.1,0.5,0l6.4,6.4
						l6.4-6.4c0.1-0.1,0.4-0.1,0.5,0s0.1,0.4,0,0.5l-6.7,6.7C50.2,47.5,50.1,47.5,50,47.5"/>
					<path id="Path_27" class="st9" d="M42.3,44.5c-0.3,0-0.5,0.2-0.5,0.5c0,1,0,3.2,1.4,4.6s3.6,1.4,4.6,1.4c0.3,0,0.5-0.2,0.5-0.5
						c0-1,0-3.2-1.4-4.6S43.3,44.5,42.3,44.5"/>
					<path id="Path_28" class="st16" d="M46.9,45.9c-0.2-0.2-0.4-0.3-0.6-0.5c0.7,1.2,1,2.6,0.9,4c0,0.3-0.2,0.5-0.5,0.5
						c-1.4,0.1-2.8-0.2-4-0.9c0.1,0.2,0.3,0.4,0.5,0.6c1.4,1.4,3.6,1.4,4.6,1.4c0.3,0,0.5-0.2,0.5-0.5
						C48.3,49.5,48.2,47.3,46.9,45.9"/>
					<path id="Path_29" class="st9" d="M57.7,44.5c0.3,0,0.5,0.2,0.5,0.5c0,1,0,3.2-1.4,4.6S53.2,51,52.2,51c-0.3,0-0.5-0.2-0.5-0.5
						c0-1,0-3.2,1.4-4.6S56.7,44.5,57.7,44.5"/>
					<path id="Path_30" class="st16" d="M58.2,45c0-0.3-0.2-0.5-0.5-0.5c-0.2,0-0.4,0-0.6,0c0,1.5-0.5,2.9-1.4,4
						c-1.1,0.9-2.5,1.4-4,1.4c0,0.2,0,0.4,0,0.6c0,0.3,0.2,0.5,0.5,0.5c1,0,3.2,0,4.6-1.4S58.2,46,58.2,45"/>
					<path id="Path_31" class="st9" d="M49.7,42.5c0.2,0.2,0.5,0.2,0.7,0c0.9-0.8,3.4-3.3,3.4-6.3s-2.5-5.4-3.4-6.3
						c-0.2-0.2-0.5-0.2-0.7,0c-0.9,0.8-3.4,3.3-3.4,6.3S48.7,41.7,49.7,42.5"/>
					<path id="Path_32" class="st17" d="M48.6,40.3c-0.1,0-0.2,0-0.2-0.1l0,0c-0.1-0.1-0.1-0.3,0.1-0.4c0,0,0,0,0,0
						c0.1-0.1,0.3-0.1,0.4,0.1l0,0c0.1,0.1,0.1,0.3-0.1,0.4C48.7,40.2,48.7,40.3,48.6,40.3 M47.9,39.3c-0.1,0-0.2-0.1-0.3-0.2
						c-1.1-1.7-1.1-3.9,0-5.6c0.4-0.8,0.9-1.5,1.5-2.1c0.1-0.1,0.3-0.1,0.4,0c0.1,0.1,0.1,0.3,0,0.4c0,0,0,0,0,0
						c-1.2,1.2-1.9,2.8-2.1,4.5c0,0.9,0.3,1.8,0.7,2.6c0.1,0.1,0,0.3-0.1,0.4c0,0,0,0,0,0C48,39.2,48,39.3,47.9,39.3"/>
					<path id="Path_33" class="st16" d="M50.3,30c0,0-0.1-0.1-0.2-0.1c1.2,1.3,1.9,3,2,4.8c0,2.9-2.5,5.4-3.4,6.3
						c-0.1,0.1-0.3,0.2-0.5,0.1c0.4,0.5,0.9,1,1.4,1.4c0.2,0.2,0.5,0.2,0.7,0c0.9-0.8,3.4-3.3,3.4-6.3S51.3,30.8,50.3,30"/>
					<path id="Path_34" class="st9" d="M60.7,35.9c0.3,0,0.5,0.2,0.5,0.5c0,1,0,3.2-1.4,4.6s-3.6,1.4-4.6,1.4
						c-0.3,0-0.5-0.2-0.5-0.5c0-1,0-3.2,1.4-4.6S59.8,35.9,60.7,35.9"/>
					<path id="Path_35" class="st16" d="M61.2,36.4c0-0.3-0.2-0.5-0.5-0.5c-0.2,0-0.4,0-0.6,0c0,1.5-0.5,2.9-1.4,4
						c-1.1,0.9-2.5,1.4-4,1.4c0,0.2,0,0.4,0,0.6c0,0.3,0.2,0.5,0.5,0.5c1,0,3.2,0,4.6-1.4S61.2,37.4,61.2,36.4"/>
					<path id="Path_36" class="st9" d="M39.3,35.9c-0.3,0-0.5,0.2-0.5,0.5c0,1,0,3.2,1.4,4.6s3.6,1.4,4.6,1.4c0.3,0,0.5-0.2,0.5-0.5
						c0-1,0-3.2-1.4-4.6S40.2,35.9,39.3,35.9"/>
					<path id="Path_37" class="st16" d="M43.9,37.3c-0.2-0.2-0.4-0.3-0.6-0.5c0.7,1.2,1,2.6,0.9,4c0,0.3-0.2,0.5-0.5,0.5
						c-1.4,0.1-2.8-0.2-4-0.9c0.1,0.2,0.3,0.4,0.5,0.6c1.4,1.4,3.6,1.4,4.6,1.4c0.3,0,0.5-0.2,0.5-0.5
						C45.3,40.9,45.2,38.7,43.9,37.3"/>
				</g>
			</g>
		</g>
	</g>
</g>
</svg>
