<svg width="100" height="100" viewBox="0 0 100 100" fill="none" xmlns="http://www.w3.org/2000/svg">
<circle cx="50" cy="50" r="50" fill="#D5E3E0"/>
<g clip-path="url(#clip0_410_15291)">
<path d="M48.7006 47.77C48.6769 48.5375 48.0606 49.1568 47.2931 49.1776C44.7714 49.2516 39.2242 48.9879 35.8343 45.598C32.4443 42.208 32.1776 36.6608 32.2546 34.1391C32.2783 33.3716 32.8947 32.7523 33.6622 32.7316C36.1839 32.6575 41.7311 32.9212 45.121 36.3111C48.511 39.7011 48.7777 45.2483 48.7006 47.77Z" fill="#4FAB58"/>
<path d="M45.1196 36.3113C44.6129 35.8046 44.0587 35.369 43.475 34.9927C45.6174 38.3263 45.8011 42.6615 45.7389 44.8069C45.7152 45.5744 45.0988 46.1937 44.3313 46.2145C42.186 46.2767 37.8507 46.093 34.5171 43.9506C34.8934 44.5343 35.329 45.0914 35.8358 45.5952C39.2257 48.9851 44.7729 49.2518 47.2946 49.1748C48.0621 49.151 48.6814 48.5347 48.7021 47.7672C48.7762 45.2485 48.5095 39.7013 45.1196 36.3113Z" fill="#2A8F63"/>
<path d="M67.7412 66.812C67.7175 67.5795 67.1011 68.1988 66.3336 68.2195C63.8119 68.2936 58.2647 68.0299 54.8748 64.6399C51.4848 61.25 51.2181 55.7028 51.2952 53.1811C51.3189 52.4136 51.9352 51.7943 52.7027 51.7735C55.2244 51.6995 60.7716 51.9632 64.1616 55.3531C67.5486 58.7401 67.8152 64.2873 67.7412 66.812Z" fill="#4FAB58"/>
<path d="M64.1591 55.3504C63.6524 54.8437 63.0983 54.4081 62.5145 54.0317C64.6569 57.3654 64.8407 61.7006 64.7784 63.846C64.7547 64.6135 64.1384 65.2328 63.3709 65.2535C61.2255 65.3158 56.8903 65.132 53.5566 62.9896C53.933 63.5734 54.3686 64.1305 54.8753 64.6342C58.2653 68.0242 63.8124 68.2909 66.3341 68.2138C67.1016 68.1901 67.7209 67.5738 67.7417 66.8063C67.8158 64.2875 67.5491 58.7403 64.1591 55.3504Z" fill="#2A8F63"/>
<path d="M52.7006 49.1811C51.9331 49.1574 51.3138 48.541 51.2931 47.7736C51.219 45.2518 51.4827 39.7046 54.8727 36.3147C58.2626 32.9247 63.8098 32.6581 66.3315 32.7351C67.099 32.7588 67.7183 33.3752 67.7391 34.1426C67.8132 36.6644 67.5494 42.2115 64.1595 45.6015C60.7695 48.9885 55.2223 49.2552 52.7006 49.1811Z" fill="#4FAB58"/>
<path d="M67.7411 34.1395C67.7174 33.372 67.1011 32.7527 66.3336 32.7319C65.895 32.7201 65.3646 32.7171 64.772 32.7379C64.6653 35.5618 63.9986 39.8348 61.1983 42.6351C58.398 45.4354 54.125 46.105 51.3011 46.2088C51.2803 46.8014 51.2803 47.3318 51.2951 47.7704C51.3188 48.5379 51.9352 49.1572 52.7027 49.1779C55.2244 49.252 60.7716 48.9883 64.1615 45.5984C67.5485 42.2084 67.8152 36.6612 67.7411 34.1395Z" fill="#2A8F63"/>
<path d="M33.6625 68.2197C32.895 68.196 32.2757 67.5796 32.255 66.8121C32.1809 64.2904 32.4447 58.7432 35.8346 55.3533C39.2246 51.9633 44.7717 51.6966 47.2934 51.7737C48.0609 51.7974 48.6802 52.4137 48.701 53.1812C48.7751 55.7029 48.5114 61.2501 45.1214 64.6401C41.7315 68.03 36.1842 68.2938 33.6625 68.2197Z" fill="#4FAB58"/>
<path d="M48.7006 53.1785C48.6769 52.4111 48.0605 51.7917 47.2931 51.771C46.8545 51.7591 46.3241 51.7562 45.7315 51.7769C45.6248 54.6009 44.958 58.8739 42.1578 61.6742C39.3575 64.4744 35.0845 65.1441 32.2605 65.2478C32.2398 65.8405 32.2398 66.3709 32.2546 66.8095C32.2783 67.5769 32.8947 68.1963 33.6621 68.217C36.1839 68.2911 41.7311 68.0274 45.121 64.6374C48.511 61.2475 48.7776 55.7003 48.7006 53.1785Z" fill="#2A8F63"/>
<path d="M64.3918 49.667C63.9651 50.1204 63.9651 50.8315 64.3918 51.2849C65.7993 52.7784 69.1389 55.8128 73.0356 55.8128C76.9322 55.8128 80.2718 52.7784 81.6794 51.2849C82.1061 50.8315 82.1061 50.1204 81.6794 49.667C80.2718 48.1735 76.9322 45.1392 73.0356 45.1392C69.1389 45.1392 65.7993 48.1735 64.3918 49.667Z" fill="#7DBA56"/>
<path d="M81.6767 49.667C81.093 49.0477 80.1714 48.1587 79.0187 47.335C79.072 47.6817 78.9713 48.0491 78.7135 48.3217C77.3059 49.8152 73.9663 52.8496 70.0697 52.8496C67.7939 52.8496 65.7078 51.8124 64.0869 50.6538C64.1225 50.8819 64.2203 51.1042 64.3921 51.285C65.7997 52.7784 69.1392 55.8128 73.0359 55.8128C76.9326 55.8128 80.2721 52.7784 81.6797 51.285C82.1034 50.8316 82.1034 50.1204 81.6767 49.667Z" fill="#4FAB58"/>
<path d="M35.5983 51.2849C36.025 50.8315 36.025 50.1204 35.5983 49.667C34.1908 48.1735 30.8512 45.1392 26.9545 45.1392C23.0578 45.1392 19.7183 48.1735 18.3108 49.667C17.884 50.1204 17.884 50.8315 18.3108 51.2849C19.7183 52.7784 23.0578 55.8128 26.9545 55.8128C30.8541 55.8128 34.1937 52.7754 35.5983 51.2849Z" fill="#7DBA56"/>
<path d="M35.5996 49.667C35.0158 49.0477 34.0943 48.1587 32.9416 47.335C32.9949 47.6817 32.8941 48.0491 32.6363 48.3217C31.2288 49.8152 27.8892 52.8496 23.9925 52.8496C21.7168 52.8496 19.6307 51.8124 18.0098 50.6538C18.0453 50.8819 18.1431 51.1042 18.315 51.285C19.7225 52.7784 23.0621 55.8128 26.9587 55.8128C30.8554 55.8128 34.195 52.7784 35.6025 51.285C36.0292 50.8316 36.0292 50.1204 35.5996 49.667Z" fill="#4FAB58"/>
<path d="M50.8069 65.4196C50.3535 64.9929 49.6424 64.9929 49.189 65.4196C47.6955 66.8272 44.6611 70.1668 44.6611 74.0634C44.6611 77.9601 47.6955 81.2997 49.189 82.7072C49.6424 83.1339 50.3535 83.1339 50.8069 82.7072C52.3004 81.2997 55.3347 77.9601 55.3347 74.0634C55.3318 70.1668 52.2974 66.8272 50.8069 65.4196Z" fill="#7DBA56"/>
<path d="M50.8059 65.4194C50.6252 65.2505 50.403 65.1498 50.1748 65.1143C51.3334 66.7352 52.3705 68.8213 52.3705 71.097C52.3705 74.9937 49.3362 78.3333 47.8427 79.7408C47.5701 79.9986 47.2027 80.0994 46.856 80.046C47.6797 81.1987 48.5687 82.1203 49.188 82.7041C49.6414 83.1308 50.3526 83.1308 50.8059 82.7041C52.2994 81.2965 55.3338 77.9569 55.3338 74.0603C55.3308 70.1666 52.2965 66.827 50.8059 65.4194Z" fill="#4FAB58"/>
<path d="M50.8069 35.5295C50.3535 35.9562 49.6424 35.9562 49.189 35.5295C47.6955 34.1219 44.6611 30.7824 44.6611 26.8857C44.6611 22.989 47.6955 19.6494 49.189 18.2419C49.6424 17.8152 50.3535 17.8152 50.8069 18.2419C52.3004 19.6494 55.3347 22.989 55.3347 26.8857C55.3318 30.7824 52.2974 34.1219 50.8069 35.5295Z" fill="#7DBA56"/>
<path d="M50.8059 18.2447C50.6252 18.0758 50.403 17.975 50.1748 17.9395C51.3334 19.5603 52.3705 21.6465 52.3705 23.9223C52.3705 27.8189 49.3362 31.1585 47.8427 32.566C47.5701 32.8238 47.2027 32.9246 46.856 32.8712C47.6797 34.0239 48.5687 34.9455 49.188 35.5293C49.6414 35.956 50.3526 35.956 50.8059 35.5293C52.2994 34.1217 55.3338 30.7822 55.3338 26.8855C55.3338 22.9888 52.2965 19.6522 50.8059 18.2447Z" fill="#4FAB58"/>
<path d="M49.9967 61.6945C56.1927 61.6945 61.2155 56.6717 61.2155 50.4757C61.2155 44.2797 56.1927 39.2568 49.9967 39.2568C43.8007 39.2568 38.7778 44.2797 38.7778 50.4757C38.7778 56.6717 43.8007 61.6945 49.9967 61.6945Z" fill="#F8AF3F"/>
<path d="M57.1525 41.8379C58.7645 43.7788 59.7334 46.2739 59.7334 48.9941C59.7334 55.1903 54.7107 60.213 48.5146 60.213C45.7943 60.213 43.2993 59.244 41.3584 57.632C43.4149 60.1122 46.5203 61.6946 49.9962 61.6946C56.1924 61.6946 61.2151 56.6719 61.2151 50.4758C61.2121 46.9999 59.6327 43.8944 57.1525 41.8379Z" fill="#EF9812"/>
<path d="M48.9896 54.725C48.6755 54.725 48.3733 54.6006 48.151 54.3784L44.8203 51.0476C44.3581 50.5854 44.3581 49.8357 44.8203 49.3705C45.2826 48.9082 46.0353 48.9082 46.4975 49.3705L48.9896 51.8625L54.0538 46.7984C54.5161 46.3361 55.2658 46.3361 55.731 46.7984C56.1933 47.2606 56.1933 48.0133 55.731 48.4756L49.8282 54.3754C49.606 54.6006 49.3037 54.725 48.9896 54.725Z" fill="white"/>
<path d="M40.5555 51.0686C40.2296 51.0686 39.9629 50.8019 39.9629 50.4759C39.9629 50.473 39.9659 50.473 39.9659 50.473C39.9659 50.147 40.2325 49.8833 40.5555 49.8833C40.8815 49.8833 41.1482 50.147 41.1482 50.473C41.1482 50.473 41.1512 50.473 41.1512 50.4759C41.1512 50.8019 40.8845 51.0686 40.5555 51.0686ZM40.8519 48.7246C40.8015 48.7246 40.7541 48.7158 40.7037 48.7039C40.5496 48.6654 40.4222 48.5676 40.3422 48.4313C40.2622 48.295 40.2385 48.1379 40.277 47.9838C40.8193 45.8651 42.0727 43.9509 43.8003 42.5907C45.5842 41.1862 47.7266 40.4453 49.9964 40.4424C50.3224 40.4424 50.5891 40.7091 50.5891 41.035C50.5891 41.364 50.3224 41.6277 49.9964 41.6277H49.9935C45.9516 41.6277 42.4313 44.3627 41.4268 48.2772C41.3586 48.5409 41.1215 48.7246 40.8519 48.7246Z" fill="#F8C577"/>
</g>
<defs>
<clipPath id="clip0_410_15291">
<rect width="64" height="64" fill="white" transform="translate(18 18)"/>
</clipPath>
</defs>
</svg>
