<?xml version="1.0" encoding="utf-8"?>
<!-- Generator: Adobe Illustrator 25.1.0, SVG Export Plug-In . SVG Version: 6.00 Build 0)  -->
<svg version="1.1" id="Group_48" xmlns="http://www.w3.org/2000/svg" xmlns:xlink="http://www.w3.org/1999/xlink" x="0px" y="0px"
	 viewBox="0 0 100 100" style="enable-background:new 0 0 100 100;" xml:space="preserve">
<style type="text/css">
	.st0{clip-path:url(#SVGID_2_);}
	.st1{clip-path:url(#SVGID_4_);}
	.st2{fill:#D5E3E0;}
	.st3{fill:#808285;}
	.st4{fill:#4D4B9F;}
	.st5{opacity:0.7;}
	.st6{clip-path:url(#SVGID_6_);}
	.st7{fill:#D3D3D3;}
	.st8{clip-path:url(#SVGID_8_);}
	.st9{fill:#F2F3F4;}
	.st10{opacity:0.3;}
	.st11{clip-path:url(#SVGID_10_);}
	.st12{fill:#404040;}
	.st13{fill:#2A8F63;}
	.st14{fill:#FFFFFF;}
	.st15{fill:#8E6648;}
	.st16{fill:#744E31;}
	.st17{clip-path:url(#SVGID_12_);}
	.st18{clip-path:url(#SVGID_14_);}
	.st19{fill:none;stroke:#469D77;stroke-linecap:round;stroke-linejoin:round;}
</style>
<g>
	<defs>
		<rect id="SVGID_1_" width="100" height="100"/>
	</defs>
	<clipPath id="SVGID_2_">
		<use xlink:href="#SVGID_1_"  style="overflow:visible;"/>
	</clipPath>
	<g id="Group_47" class="st0">
		<g id="Group_46">
			<g>
				<defs>
					<rect id="SVGID_3_" width="100" height="100"/>
				</defs>
				<clipPath id="SVGID_4_">
					<use xlink:href="#SVGID_3_"  style="overflow:visible;"/>
				</clipPath>
				<g id="Group_45" class="st1">
					<path id="Path_45" class="st2" d="M100,50c0,27.6-22.4,50-50,50S0,77.6,0,50S22.4,0,50,0S100,22.4,100,50"/>
					<rect id="Rectangle_23" x="48.1" y="55" class="st3" width="3.8" height="3"/>
					<path id="Path_46" class="st4" d="M50.4,30h-0.8c-0.9,0.1-1.6,0.9-1.5,1.8v22.4c-0.1,0.9,0.6,1.7,1.5,1.8h0.8
						c0.9-0.1,1.5-0.9,1.5-1.8V31.8C52,30.9,51.3,30.1,50.4,30L50.4,30z"/>
					<path id="Path_47" class="st3" d="M50.9,31c0.1,0.2,0.2,0.4,0.2,0.7v21.9c0,0.5-0.2,0.9-0.6,1.2c-0.3,0.3-0.7,0.4-1.1,0.4h-0.5
						c-0.2,0-0.5-0.1-0.7-0.2c0.1,0.3,0.4,0.6,0.6,0.7c0.3,0.2,0.6,0.3,0.9,0.3h0.5c0.4,0,0.8-0.1,1.1-0.4c0.3-0.3,0.5-0.7,0.6-1.2
						v-22c0-0.3-0.1-0.6-0.3-0.9C51.4,31.3,51.2,31.1,50.9,31"/>
					<g id="Group_32" class="st5">
						<g id="Group_31">
							<g>
								<defs>
									<rect id="SVGID_5_" x="48.1" y="36" width="0.9" height="17"/>
								</defs>
								<clipPath id="SVGID_6_">
									<use xlink:href="#SVGID_5_"  style="overflow:visible;"/>
								</clipPath>
								<g id="Group_30" class="st6">
									<path id="Path_48" class="st7" d="M48.6,36L48.6,36c-0.3,0-0.5,0.2-0.5,0.5v16c0,0.3,0.2,0.5,0.4,0.5h0.1
										c0.3,0,0.4-0.2,0.4-0.5v-16C49.1,36.2,48.9,36,48.6,36"/>
								</g>
							</g>
						</g>
					</g>
					<g id="Group_35" class="st5">
						<g id="Group_34">
							<g>
								<defs>
									<rect id="SVGID_7_" x="48.1" y="30" width="0.9" height="3"/>
								</defs>
								<clipPath id="SVGID_8_">
									<use xlink:href="#SVGID_7_"  style="overflow:visible;"/>
								</clipPath>
								<g id="Group_33" class="st8">
									<path id="Path_49" class="st7" d="M48.6,30L48.6,30c-0.3,0-0.5,0.3-0.5,0.6v1.7c0,0.4,0.2,0.6,0.4,0.6h0.1
										c0.2,0,0.4-0.3,0.4-0.6v-1.7C49.1,30.3,48.9,30,48.6,30"/>
								</g>
							</g>
						</g>
					</g>
					<path id="Path_50" class="st9" d="M54.7,68.6c-0.4-0.3-0.7-0.6-1-1.1c-0.1-0.2-0.2-0.5-0.3-0.7v-9.4c0-0.7-0.3-1.3-0.7-1.8
						c-0.4-0.5-1-0.7-1.7-0.7h-3c-0.3,0-0.6,0-0.9,0.2c-0.3,0.1-0.6,0.3-0.8,0.5c-0.2,0.2-0.4,0.5-0.5,0.8c-0.1,0.3-0.2,0.6-0.2,1
						v9.3c-0.3,0.7-0.7,1.3-1.3,1.9h1.3c0,0.6,0.3,1.3,0.7,1.7c0.4,0.4,1,0.7,1.6,0.7h3c0.3,0,0.6,0,0.9-0.1
						c0.3-0.1,0.6-0.3,0.8-0.5c0.2-0.2,0.4-0.5,0.5-0.8c0.1-0.3,0.2-0.6,0.2-0.9L54.7,68.6L54.7,68.6z"/>
					<path id="Path_51" class="st7" d="M50.9,71h0.8c0.6,0,1.1-0.3,1.4-0.8c0.4-0.7,0.6-1.4,0.6-2.2H53c0,0.8-0.2,1.5-0.6,2.2
						C52.1,70.7,51.5,71,50.9,71"/>
					<path id="Path_52" class="st7" d="M54.6,67c-0.1-0.2-0.2-0.5-0.3-0.7v-9c0-1.3-1.1-2.4-2.5-2.3c0,0,0,0,0,0h-0.9
						c1.3,0,2.4,1,2.5,2.3c0,0,0,0,0,0v9c0.1,0.3,0.2,0.5,0.3,0.7c0.3,0.4,0.6,0.7,1,1h0.9C55.2,67.7,54.9,67.4,54.6,67L54.6,67z"/>
					<path id="Path_53" class="st9" d="M53.8,71.7c-0.3,0.2-0.5,0.4-0.7,0.7c-0.1,0.2-0.2,0.3-0.2,0.5v6.4c0,0.5-0.2,0.9-0.5,1.2
						C52,80.8,51.5,81,51.1,81h-2.2c-0.5,0-0.9-0.2-1.2-0.5c-0.3-0.3-0.5-0.7-0.5-1.2v-6.4c-0.1-0.2-0.2-0.4-0.3-0.6
						c-0.2-0.2-0.4-0.5-0.6-0.7h0.9c0-0.5,0.2-0.9,0.5-1.2c0.3-0.3,0.8-0.5,1.2-0.5h2.2c0.4,0,0.9,0.2,1.2,0.5
						c0.3,0.3,0.5,0.7,0.5,1.2L53.8,71.7"/>
					<path id="Path_54" class="st7" d="M52.8,71.7c0-0.5-0.2-0.9-0.5-1.2C52,70.2,51.6,70,51.1,70H51c0.2,0.2,0.3,0.6,0.3,0.9h0.8
						c-0.2,0.2-0.5,0.4-0.6,0.6c-0.1,0.1-0.2,0.3-0.2,0.5v5.7c0,0.4-0.2,0.8-0.5,1.1c-0.3,0.3-0.7,0.4-1.1,0.4h-1.9
						c-0.3,0-0.5-0.1-0.7-0.2v0.3c0,0.5,0.2,0.9,0.5,1.2c0.3,0.3,0.8,0.5,1.2,0.5h2.2c0.4,0,0.9-0.2,1.2-0.5
						c0.3-0.3,0.5-0.7,0.5-1.2v-6.4c0.1-0.2,0.1-0.4,0.2-0.5c0.2-0.3,0.4-0.5,0.7-0.7H52.8z"/>
					<path id="Path_55" class="st9" d="M44.1,68h11.7c0.5,0,0.9,0.2,1.2,0.6c0.3,0.4,0.5,0.9,0.5,1.4v1.1c0,0.1,0,0.2-0.1,0.3
						c0,0.1-0.1,0.2-0.2,0.3c-0.1,0.1-0.2,0.1-0.2,0.2C57,72,56.9,72,56.8,72H43.2c-0.1,0-0.2,0-0.3-0.1c-0.1,0-0.2-0.1-0.2-0.2
						c-0.1-0.1-0.1-0.2-0.2-0.3c0-0.1-0.1-0.2-0.1-0.3V70c0-0.5,0.2-1,0.5-1.4C43.2,68.2,43.7,68,44.1,68L44.1,68z"/>
					<path id="Path_56" class="st7" d="M55.6,68h-0.9c0.3,0,0.5,0,0.7,0.1c0.2,0.1,0.5,0.3,0.6,0.4c0.2,0.2,0.3,0.4,0.4,0.7
						c0.1,0.3,0.1,0.5,0.1,0.8v1c0,0.1,0,0.2-0.1,0.4c0,0.1-0.1,0.2-0.2,0.3c-0.1,0.1-0.2,0.2-0.3,0.2C56,72,55.9,72,55.8,72h0.9
						c0.1,0,0.2,0,0.3-0.1c0.1,0,0.2-0.1,0.3-0.2c0.1-0.1,0.1-0.2,0.2-0.3c0-0.1,0.1-0.2,0.1-0.4v-1c0-0.3,0-0.6-0.1-0.8
						c-0.1-0.3-0.2-0.5-0.4-0.7c-0.2-0.2-0.4-0.3-0.6-0.4C56.1,68,55.9,68,55.6,68"/>
					<g id="Group_38" class="st10">
						<g id="Group_37">
							<g>
								<defs>
									<rect id="SVGID_9_" x="48.1" y="57" width="3.8" height="4"/>
								</defs>
								<clipPath id="SVGID_10_">
									<use xlink:href="#SVGID_9_"  style="overflow:visible;"/>
								</clipPath>
								<g id="Group_36" class="st11">
									<path id="Path_57" class="st12" d="M50,61c1.1,0.1,2-0.8,2.1-1.9c0.1-1.1-0.8-2-1.9-2.1c-1.1-0.1-2,0.8-2.1,1.9
										c0,0,0,0.1,0,0.1C48.1,60.1,48.9,61,50,61"/>
								</g>
							</g>
						</g>
					</g>
					<path id="Path_58" class="st13" d="M50,60c0.6,0,1-0.4,1.1-0.9s-0.4-1-0.9-1.1c-0.6,0-1,0.4-1.1,0.9c0,0,0,0,0,0.1
						C49,59.5,49.5,60,50,60"/>
					<path id="Path_59" class="st14" d="M47.7,56L47.7,56c-0.3,0-0.5,0.3-0.5,0.5v3.9c0,0.3,0.2,0.5,0.4,0.5h0.1
						c0.3,0,0.5-0.3,0.4-0.5v-3.9C48.1,56.3,47.9,56,47.7,56"/>
					<path id="Path_60" class="st14" d="M55.1,68H43.9c-0.3,0-0.5,0.2-0.5,0.5v0.1c0,0.3,0.2,0.5,0.5,0.5h11.2
						c0.3,0,0.5-0.2,0.5-0.5v-0.1C55.6,68.2,55.4,68,55.1,68L55.1,68z"/>
					<path id="Path_61" class="st15" d="M71.1,74H28.9c-1.9,0-3.5,1.6-3.5,3.5S27,81,28.9,81l0,0h42.2c1.9,0,3.5-1.6,3.5-3.5
						S73,74,71.1,74"/>
					<path id="Path_62" class="st16" d="M72.8,75c0.2,0.7,0.2,1.4-0.1,2.1c-0.2,0.4-0.4,0.8-0.7,1.1c-0.3,0.3-0.7,0.5-1.1,0.7
						c-0.4,0.2-0.9,0.2-1.3,0.2H27.2c-0.6,0-1.1-0.1-1.6-0.4c0.2,0.7,0.6,1.3,1.2,1.7c0.6,0.4,1.3,0.6,2,0.6h42.4
						c0.7,0,1.5-0.2,2-0.7c0.6-0.4,1-1,1.2-1.7c0.2-0.7,0.1-1.4-0.2-2.1C73.9,75.9,73.4,75.3,72.8,75"/>
					<g id="Group_41" class="st10">
						<g id="Group_40">
							<g>
								<defs>
									<rect id="SVGID_11_" x="32.4" y="75.3" width="34.1" height="1.5"/>
								</defs>
								<clipPath id="SVGID_12_">
									<use xlink:href="#SVGID_11_"  style="overflow:visible;"/>
								</clipPath>
								<g id="Group_39" class="st17">
									<path id="Path_63" class="st14" d="M65.8,75.3H33.1c-0.4,0-0.7,0.4-0.7,0.8c0,0.4,0.3,0.7,0.7,0.7h32.7
										c0.4,0,0.7-0.4,0.7-0.8C66.5,75.6,66.2,75.3,65.8,75.3"/>
								</g>
							</g>
						</g>
					</g>
					<g id="Group_44" class="st10">
						<g id="Group_43">
							<g>
								<defs>
									<rect id="SVGID_13_" x="29.6" y="75.3" width="1.5" height="1.5"/>
								</defs>
								<clipPath id="SVGID_14_">
									<use xlink:href="#SVGID_13_"  style="overflow:visible;"/>
								</clipPath>
								<g id="Group_42" class="st18">
									<path id="Path_64" class="st14" d="M30.4,75.3h-0.1c-0.4,0-0.7,0.4-0.7,0.8c0,0.4,0.3,0.7,0.7,0.7h0.1
										c0.4,0,0.7-0.4,0.7-0.8C31.1,75.6,30.8,75.3,30.4,75.3"/>
								</g>
							</g>
						</g>
					</g>
					<path id="Path_65" class="st19" d="M43.4,26c3.2-3.6,8.7-4,12.3-0.9c0.3,0.3,0.6,0.5,0.9,0.9"/>
					<path id="Path_66" class="st19" d="M46.2,28.8c0.5-0.6,1-1,1.7-1.4c1.3-0.6,2.9-0.6,4.2,0.1c0.6,0.3,1.2,0.8,1.6,1.4"/>
					<path id="Path_67" class="st19" d="M38.7,24c2.8-3,6.7-4.8,10.8-5c4.4-0.1,8.7,1.7,11.8,4.8"/>
				</g>
			</g>
		</g>
	</g>
</g>
</svg>
