<?xml version="1.0" encoding="utf-8"?>
<!-- Generator: Adobe Illustrator 25.1.0, SVG Export Plug-In . SVG Version: 6.00 Build 0)  -->
<svg version="1.1" id="Layer_1" xmlns="http://www.w3.org/2000/svg" xmlns:xlink="http://www.w3.org/1999/xlink" x="0px" y="0px"
	 viewBox="0 0 100 100" style="enable-background:new 0 0 100 100;" xml:space="preserve">
<style type="text/css">
	.st0{fill:#D5E3E0;}
	.st1{fill:#232462;}
	.st2{fill:#5F88C6;}
	.st3{fill:#2A8F63;}
	.st4{fill:#7DBA56;}
	.st5{fill:#469D77;}
	.st6{fill:#FFFFFF;}
	.st7{fill:#F2F3F4;}
</style>
<circle class="st0" cx="50" cy="50" r="50"/>
<path class="st1" d="M47.6,76.3c15.8,0,28.6-12.8,28.6-28.6S63.5,19,47.6,19S19,31.8,19,47.6S31.8,76.3,47.6,76.3z"/>
<path class="st2" d="M20.9,44.9C20.8,44.9,20.8,44.9,20.9,44.9c-0.4,0-0.6-0.3-0.5-0.6c0-0.3,0.3-0.5,0.6-0.5c0.1,0,0.3,0.1,0.4,0.2
	c0.1,0.1,0.1,0.3,0.1,0.4C21.4,44.7,21.1,44.9,20.9,44.9z M21.2,42.8c0,0-0.1,0-0.1,0c-0.3-0.1-0.5-0.4-0.4-0.7
	c0.9-4.6,3.1-8.9,6.2-12.5c3.1-3.5,7-6.3,11.4-7.9c0.7-0.3,1.4-0.5,2.1-0.7c0.3-0.1,0.6,0.1,0.7,0.4c0.1,0.3-0.1,0.6-0.4,0.7
	c-0.7,0.2-1.4,0.4-2.1,0.7C30,25.9,23.6,33.4,21.7,42.3v0C21.7,42.6,21.5,42.8,21.2,42.8z"/>
<path class="st1" d="M57.6,20.8c7.9,5.1,13.2,14,13.2,24.1c0,15.8-12.8,28.6-28.6,28.6c-3.5,0-6.9-0.6-10-1.8
	c4.5,2.9,9.8,4.5,15.5,4.5c15.8,0,28.6-12.8,28.6-28.6C76.3,35.3,68.5,24.8,57.6,20.8z"/>
<path class="st3" d="M47.6,62.1c-0.4,0-0.7-0.3-0.7-0.7V36.8c0-0.4,0.3-0.7,0.7-0.7c0.4,0,0.7,0.3,0.7,0.7v24.6
	C48.3,61.8,48,62.1,47.6,62.1z"/>
<path class="st3" d="M47.6,54.5c-0.2,0-0.4-0.1-0.5-0.2l-4.1-4.1c-0.3-0.3-0.3-0.7,0-1c0.3-0.3,0.7-0.3,1,0l3.6,3.6l3.6-3.6
	c0.3-0.3,0.7-0.3,1,0c0.3,0.3,0.3,0.7,0,1l-4.1,4.1C48,54.4,47.8,54.5,47.6,54.5z"/>
<path class="st3" d="M47.6,46.7c-0.2,0-0.4-0.1-0.5-0.2l-9.3-9.3c-0.3-0.3-0.3-0.7,0-1c0.3-0.3,0.7-0.3,1,0l8.8,8.8l8.8-8.8
	c0.3-0.3,0.7-0.3,1,0c0.3,0.3,0.3,0.7,0,1l-9.3,9.3C48,46.7,47.8,46.7,47.6,46.7z"/>
<path class="st4" d="M37,42.5c-0.4,0-0.7,0.3-0.7,0.7c0,1.3,0.1,4.5,2,6.3c1.9,1.9,5,2,6.3,2c0.4,0,0.7-0.3,0.7-0.7
	c0-1.3-0.1-4.5-2-6.3C41.4,42.5,38.3,42.4,37,42.5z"/>
<path class="st5" d="M43.3,44.4c-0.4-0.4-0.8-0.7-1.2-0.9c1,1.8,1.1,4.1,1.1,5.1c0,0.4-0.3,0.7-0.7,0.7c-1.1,0-3.3,0-5.1-1.1
	c0.2,0.4,0.5,0.8,0.9,1.2c1.9,1.9,5,2,6.3,2c0.4,0,0.7-0.3,0.7-0.7C45.3,49.4,45.2,46.3,43.3,44.4z"/>
<path class="st4" d="M58.3,42.5c0.4,0,0.7,0.3,0.7,0.7c0,1.3-0.1,4.5-2,6.3c-1.9,1.9-5,2-6.3,2c-0.4,0-0.7-0.3-0.7-0.7
	c0-1.3,0.1-4.5,2-6.3C53.9,42.5,57,42.4,58.3,42.5z"/>
<path class="st5" d="M59,43.1c0-0.4-0.3-0.7-0.7-0.7c-0.4,0-0.9,0-1.4,0C56.8,44,56.3,46,55,47.4c-1.4,1.4-3.4,1.8-4.9,1.9
	c0,0.6,0,1.1,0,1.4c0,0.4,0.3,0.7,0.7,0.7c1.3,0,4.5-0.1,6.3-2C58.9,47.6,59,44.5,59,43.1z"/>
<path class="st4" d="M47.2,39.6c0.3,0.2,0.7,0.2,0.9,0c1.3-1.1,4.7-4.6,4.7-8.7c0-4.1-3.4-7.5-4.7-8.7c-0.3-0.2-0.7-0.2-0.9,0
	c-1.3,1.1-4.7,4.6-4.7,8.7C42.5,35.1,45.9,38.5,47.2,39.6z"/>
<path class="st5" d="M48.1,22.3c-0.3-0.2-0.7-0.2-0.9,0c-0.2,0.2-0.4,0.4-0.7,0.7c1.1,1.6,2.2,3.6,2.2,5.9c0,3.4-2.4,6.4-4,8
	c0.9,1.3,1.9,2.3,2.5,2.8c0.3,0.2,0.7,0.2,0.9,0c1.3-1.1,4.7-4.6,4.7-8.7S49.4,23.5,48.1,22.3z"/>
<path class="st4" d="M62.5,30.5c0.4,0,0.7,0.3,0.7,0.7c0,1.3-0.1,4.5-2,6.3c-1.9,1.9-5,2-6.3,2c-0.4,0-0.7-0.3-0.7-0.7
	c0-1.3,0.1-4.5,2-6.3C58.1,30.6,61.2,30.5,62.5,30.5z"/>
<path class="st5" d="M63.2,31.2c0-0.4-0.3-0.7-0.7-0.7c-0.4,0-0.9,0-1.4,0c-0.1,1.5-0.6,3.5-1.9,4.9c-1.4,1.4-3.4,1.8-4.9,1.9
	c0,0.6,0,1.1,0,1.4c0,0.4,0.3,0.7,0.7,0.7c1.3,0,4.5-0.1,6.3-2C63.1,35.6,63.2,32.5,63.2,31.2z"/>
<path class="st4" d="M32.8,30.5c-0.4,0-0.7,0.3-0.7,0.7c0,1.3,0.1,4.5,2,6.3c1.9,1.9,5,2,6.3,2c0.4,0,0.7-0.3,0.7-0.7
	c0-1.3-0.1-4.5-2-6.3C37.2,30.6,34.1,30.5,32.8,30.5z"/>
<path class="st5" d="M39.1,32.5c-0.4-0.4-0.8-0.7-1.2-0.9c1,1.8,1.1,4.1,1.1,5.1c0,0.4-0.3,0.7-0.7,0.7c-1.1,0-3.3,0-5.1-1.1
	c0.2,0.4,0.5,0.8,0.9,1.2c1.9,1.9,5,2,6.3,2c0.4,0,0.7-0.3,0.7-0.7C41.1,37.5,41,34.4,39.1,32.5z"/>
<path class="st4" d="M47.6,76.3C47.6,60.5,34.8,47.8,19,47.8C19.1,63.5,31.9,76.3,47.6,76.3z"/>
<path class="st5" d="M19.4,52.3c2,12.1,11.6,21.6,23.7,23.6C41.1,63.8,31.5,54.3,19.4,52.3z"/>
<path class="st3" d="M20.7,57.3c2.9,8.1,9.3,14.5,17.4,17.3C35.2,66.6,28.8,60.2,20.7,57.3z"/>
<path class="st4" d="M32,71.7c4.5,2.9,9.9,4.6,15.6,4.6c15.7,0,28.5-12.7,28.6-28.4C58.2,48.9,42.2,58,32,71.7z"/>
<path class="st5" d="M47.6,76.3c14.1,0,25.8-10.2,28.2-23.6c-15.4,2.1-29,10.2-38.3,21.8C40.7,75.7,44.1,76.3,47.6,76.3z"/>
<path class="st3" d="M47.6,76.3c12.1,0,22.4-7.5,26.6-18.1c-11.7,2.9-22.1,9.2-29.9,17.9C45.4,76.2,46.5,76.3,47.6,76.3z"/>
<path class="st6" d="M64.2,81.4c7.8,0,14.1-6.3,14.1-14.1c0-7.8-6.3-14.1-14.1-14.1c-7.8,0-14.1,6.3-14.1,14.1
	C50.1,75.1,56.4,81.4,64.2,81.4z"/>
<path class="st7" d="M72.7,56c1.8,2.4,2.8,5.3,2.8,8.5c0,7.8-6.3,14.1-14.1,14.1c-3.2,0-6.1-1.1-8.5-2.8c2.6,3.4,6.7,5.6,11.3,5.6
	c7.8,0,14.1-6.3,14.1-14.1C78.3,62.7,76.1,58.6,72.7,56z"/>
<path class="st0" d="M73.5,56.6c2.2,2.5,3.5,5.7,3.5,9.3C77,73.7,70.6,80,62.9,80c-3.5,0-6.8-1.3-9.3-3.5c2.6,3,6.4,4.8,10.6,4.8
	c7.8,0,14.1-6.3,14.1-14.1C78.3,63,76.5,59.2,73.5,56.6z"/>
<path class="st4" d="M66.7,73.9c0,1.4-1.1,2.6-2.6,2.6c-1.4,0-2.6-1.1-2.6-2.6c0-1.4,1.1-2.6,2.6-2.6C65.6,71.4,66.7,72.5,66.7,73.9
	z"/>
<path class="st5" d="M65.1,71.6c0.1,0.3,0.2,0.6,0.2,1c0,1.4-1.1,2.6-2.6,2.6c-0.3,0-0.7-0.1-1-0.2c0.4,0.9,1.3,1.6,2.4,1.6
	c1.4,0,2.6-1.1,2.6-2.6C66.7,72.9,66.1,72,65.1,71.6z"/>
<path class="st4" d="M69.2,70.1c-0.3,0.2-0.6,0.2-0.9,0c-2.3-2.1-5.9-2.1-8.2,0c-0.3,0.2-0.6,0.2-0.9,0l-1-0.9
	c-0.3-0.2-0.3-0.7,0-0.9c0,0,0,0,0,0c3.4-3.1,8.5-3.1,11.9,0c0.3,0.2,0.3,0.7,0,0.9c0,0,0,0,0,0L69.2,70.1z"/>
<path class="st5" d="M70.1,68.3c-0.4-0.3-0.8-0.6-1.2-0.9c0,0.2-0.1,0.3-0.2,0.5c0,0,0,0,0,0l-1,0.9c-0.3,0.2-0.6,0.2-0.9,0
	c-2.3-2.1-5.9-2.1-8.2,0c-0.2,0.2-0.5,0.2-0.7,0.1c0,0.1,0.1,0.3,0.2,0.4l1,0.9c0.3,0.2,0.6,0.2,0.9,0c2.3-2.1,5.9-2.1,8.2,0
	c0.3,0.2,0.6,0.2,0.9,0l1-0.9c0,0,0,0,0,0C70.4,68.9,70.4,68.5,70.1,68.3z"/>
<path class="st4" d="M73.1,66.2c-0.2,0.2-0.6,0.2-0.9,0c-4.5-4.3-11.6-4.3-16.1,0c-0.3,0.2-0.6,0.2-0.9,0l-1-0.9
	c-0.3-0.3-0.3-0.7,0-0.9c0,0,0,0,0,0c5.5-5.3,14.2-5.3,19.8,0c0.3,0.3,0.3,0.7,0,0.9c0,0,0,0,0,0L73.1,66.2z"/>
<path class="st5" d="M74.1,64.3c-0.4-0.4-0.8-0.7-1.2-1c0,0.2,0,0.4-0.2,0.6c0,0,0,0,0,0l-1,0.9c-0.2,0.2-0.6,0.2-0.9,0
	c-4.5-4.3-11.6-4.3-16.1,0C54.6,65,54.3,65,54.1,65c0,0.1,0.1,0.2,0.2,0.3l1,0.9c0.2,0.2,0.6,0.2,0.9,0c4.5-4.3,11.6-4.3,16.1,0
	c0.3,0.2,0.6,0.2,0.9,0l1-0.9c0,0,0,0,0,0C74.4,65,74.4,64.6,74.1,64.3z"/>
</svg>
