<svg xmlns="http://www.w3.org/2000/svg" data-name="Layer 1" viewBox="0 0 100 125" x="0px" y="0px"><title>Artboard 100</title><circle cx="78" cy="49" r="3"/><circle cx="22" cy="49" r="3"/><circle cx="50" cy="21" r="3"/><circle cx="30" cy="29" r="3"/><path d="M73,29a3,3,0,0,0-.88-2.12,3.07,3.07,0,0,0-4.24,0l-12.5,12.5-.64-.3A11,11,0,0,0,50,38a11.41,11.41,0,0,0-2.38.25,11,11,0,1,0,12.51,6.46c0-.11-.1-.22-.15-.33l-.36-.76,12.5-12.51A3,3,0,0,0,73,29ZM50,54a5,5,0,1,1,5-5A5,5,0,0,1,50,54Z"/><path d="M78,75c-2,0-3-1-4.74-3s-4.4-5-9.26-5-7.4,2.9-9.25,5S52.05,75,50,75s-3-1-4.75-3-4.4-5-9.26-5-7.4,2.9-9.26,5S24,75,22,75a3,3,0,0,0,0,6c4.86,0,7.4-2.9,9.26-5S34,73,36,73s3,1,4.74,3,4.4,5,9.26,5,7.4-2.9,9.25-5S62,73,64,73s3,1,4.74,3,4.39,5,9.26,5a3,3,0,0,0,0-6Z"/><text x="0" y="115" fill="#000000" font-size="5px" font-weight="bold" font-family="'Helvetica Neue', Helvetica, Arial-Unicode, Arial, Sans-serif">Created by Gregor Cresnar</text><text x="0" y="120" fill="#000000" font-size="5px" font-weight="bold" font-family="'Helvetica Neue', Helvetica, Arial-Unicode, Arial, Sans-serif">from the Noun Project</text></svg>