<svg xmlns="http://www.w3.org/2000/svg" xmlns:xlink="http://www.w3.org/1999/xlink" version="1.1" x="0px" y="0px" viewBox="0 0 64 80" style="enable-background:new 0 0 64 64;" xml:space="preserve"><g><path d="M56,55H8c-0.553,0-1,0.448-1,1s0.447,1,1,1h48c0.553,0,1-0.448,1-1S56.553,55,56,55z"/><path d="M56,31H35v-8h1c4.963,0,9-4.038,9-9V8c0-0.552-0.447-1-1-1h-6c-4.963,0-9,4.038-9,9v15H8c-0.553,0-1,0.448-1,1s0.447,1,1,1   h21v3h-5c-2.757,0-5,2.243-5,5s2.243,5,5,5h6c2.757,0,5-2.243,5-5c0-0.022-0.011-0.041-0.013-0.063   C34.989,40.916,35,40.897,35,40.875V33h21c0.553,0,1-0.448,1-1S56.553,31,56,31z M21,41c0-1.654,1.346-3,3-3h6c0.553,0,1-0.448,1-1   V16c0-3.86,3.141-7,7-7h5v5c0,3.86-3.141,7-7,7h-2c-0.553,0-1,0.448-1,1v18h-6.586c-0.812,0-1.537,0.485-1.848,1.235   S24.426,42.84,25,43.414L25.586,44H24C22.346,44,21,42.654,21,41z M30,44h-1.586l-2-2h6.402C32.402,43.161,31.302,44,30,44z"/><path d="M26,9c1.23,0,2.44,0.324,3.499,0.936c0.479,0.277,1.091,0.113,1.366-0.365c0.277-0.478,0.113-1.089-0.364-1.366   C29.138,7.417,27.582,7,26,7h-6c-0.553,0-1,0.448-1,1v6c0,4.531,3.386,8.37,7.876,8.93c0.042,0.005,0.084,0.008,0.125,0.008   c0.497,0,0.929-0.37,0.991-0.876c0.068-0.548-0.32-1.047-0.868-1.116C23.633,20.51,21,17.524,21,14V9H26z"/><path d="M13,53h2c0.553,0,1-0.448,1-1s-0.447-1-1-1h-2c-0.553,0-1,0.448-1,1S12.447,53,13,53z"/><path d="M25,54.125h2c0.553,0,1-0.448,1-1s-0.447-1-1-1h-2c-0.553,0-1,0.448-1,1S24.447,54.125,25,54.125z"/><path d="M23,49.125h-2c-0.553,0-1,0.448-1,1s0.447,1,1,1h2c0.553,0,1-0.448,1-1S23.553,49.125,23,49.125z"/><path d="M37,53c0.553,0,1-0.448,1-1s-0.447-1-1-1h-2c-0.553,0-1,0.448-1,1s0.447,1,1,1H37z"/><path d="M49,50h-2c-0.553,0-1,0.448-1,1s0.447,1,1,1h2c0.553,0,1-0.448,1-1S49.553,50,49,50z"/><path d="M43,49h2c0.553,0,1-0.448,1-1s-0.447-1-1-1h-2c-0.553,0-1,0.448-1,1S42.447,49,43,49z"/><path d="M13,45h2c0.553,0,1-0.448,1-1s-0.447-1-1-1h-2c-0.553,0-1,0.448-1,1S12.447,45,13,45z"/><path d="M49,42h-2c-0.553,0-1,0.448-1,1s0.447,1,1,1h2c0.553,0,1-0.448,1-1S49.553,42,49,42z"/><path d="M45,39h-2c-0.553,0-1,0.448-1,1s0.447,1,1,1h2c0.553,0,1-0.448,1-1S45.553,39,45,39z"/><path d="M40.79,13.99c0.04,0,0.09,0.01,0.14,0.01c0.49,0,0.92-0.37,0.99-0.86c0.04-0.27-0.03-0.53-0.19-0.75   c-0.16-0.21-0.399-0.35-0.66-0.38c-0.539-0.08-1.06,0.31-1.13,0.84C39.859,13.4,40.24,13.91,40.79,13.99z"/><path d="M34,20c2.319,0,4.53-1.01,6.05-2.76c0.17-0.2,0.26-0.46,0.24-0.73c-0.021-0.26-0.141-0.51-0.34-0.68   c-0.4-0.35-1.07-0.3-1.42,0.1C37.39,17.25,35.74,18,34,18c-0.55,0-1,0.45-1,1C33,19.55,33.45,20,34,20z"/></g><text x="0" y="79" fill="#000000" font-size="5px" font-weight="bold" font-family="'Helvetica Neue', Helvetica, Arial-Unicode, Arial, Sans-serif">Created by Kukuh Wachyu Bias</text><text x="0" y="84" fill="#000000" font-size="5px" font-weight="bold" font-family="'Helvetica Neue', Helvetica, Arial-Unicode, Arial, Sans-serif">from the Noun Project</text></svg>