<svg xmlns="http://www.w3.org/2000/svg" xmlns:xlink="http://www.w3.org/1999/xlink" version="1.1" x="0px" y="0px" viewBox="0 0 512 640" style="enable-background:new 0 0 512 512;" xml:space="preserve"><style type="text/css">
	.st0{fill:none;}
</style><g><path class="st0" d="M106.76,312.6c0,58.86,47.89,106.75,106.75,106.75s106.75-47.89,106.75-106.75   c0-51.86-83.41-179.57-106.75-214.27C190.17,133.03,106.76,260.75,106.76,312.6z"/><path d="M207.51,81.2C202.8,87.99,92.17,248.08,92.17,312.6c0,66.91,54.43,121.33,121.33,121.33s121.33-54.43,121.33-121.33   c0-64.52-110.64-224.62-115.34-231.41C216.76,77.27,210.24,77.27,207.51,81.2z M213.5,419.35c-58.86,0-106.75-47.89-106.75-106.75   c0-51.86,83.41-179.57,106.75-214.27c23.33,34.7,106.75,162.41,106.75,214.27C320.25,371.46,272.36,419.35,213.5,419.35z"/><path d="M412.54,31.36h-45.5c-4.03,0-7.29,3.26-7.29,7.29s3.26,7.29,7.29,7.29h38.2v37.9h-15.46c-4.03,0-7.29,3.26-7.29,7.29   c0,4.03,3.26,7.29,7.29,7.29h15.46v40.37h-15.46c-4.03,0-7.29,3.26-7.29,7.29s3.26,7.29,7.29,7.29h15.46v40.37h-15.46   c-4.03,0-7.29,3.26-7.29,7.29s3.26,7.29,7.29,7.29h15.46v40.37h-15.46c-4.03,0-7.29,3.26-7.29,7.29s3.26,7.29,7.29,7.29h15.46   v40.36h-15.46c-4.03,0-7.29,3.26-7.29,7.29c0,4.03,3.26,7.29,7.29,7.29h15.46v40.37h-15.46c-4.03,0-7.29,3.26-7.29,7.29   c0,4.03,3.26,7.29,7.29,7.29h15.46v40.38h-15.46c-4.03,0-7.29,3.26-7.29,7.29s3.26,7.29,7.29,7.29h15.46v37.89h-38.2   c-4.03,0-7.29,3.26-7.29,7.29s3.26,7.29,7.29,7.29h45.5c4.03,0,7.29-3.26,7.29-7.29V38.65C419.83,34.62,416.57,31.36,412.54,31.36z   "/></g><text x="0" y="527" fill="#000000" font-size="5px" font-weight="bold" font-family="'Helvetica Neue', Helvetica, Arial-Unicode, Arial, Sans-serif">Created by Creative Studio</text><text x="0" y="532" fill="#000000" font-size="5px" font-weight="bold" font-family="'Helvetica Neue', Helvetica, Arial-Unicode, Arial, Sans-serif">from the Noun Project</text></svg>