<svg xmlns="http://www.w3.org/2000/svg" xmlns:xlink="http://www.w3.org/1999/xlink" xml:space="preserve" style="shape-rendering:geometricPrecision;text-rendering:geometricPrecision;image-rendering:optimizeQuality;" viewBox="0 0 2.33333 2.9166625" x="0px" y="0px" fill-rule="evenodd" clip-rule="evenodd"><defs><style type="text/css">
   
    .fil0 {fill:none}
    .fil1 {fill:black;fill-rule:nonzero}
   
  </style></defs><rect class="fil0" width="2.33333" height="2.33333"/><g><path class="fil1" d="M1.16667 0.313335c0.0478543,0 0.0913504,0.019563 0.122858,0.0510787 0.0315118,0.0315118 0.0510787,0.0750079 0.0510787,0.122862l0 1.02552c0.032563,0.0253543 0.0594646,0.057685 0.0784488,0.094748 0.0198701,0.0387913 0.0310866,0.0826535 0.0310866,0.128992 0,0.0782717 -0.0317323,0.149142 -0.0830276,0.200437 -0.0512953,0.0512953 -0.122169,0.0830276 -0.200445,0.0830276 -0.0782756,0 -0.14915,-0.0317323 -0.200445,-0.0830276 -0.0512953,-0.0512953 -0.0830276,-0.122165 -0.0830276,-0.200437 0,-0.0463386 0.0112165,-0.0902008 0.0310866,-0.128992 0.0189843,-0.037063 0.0458819,-0.0693937 0.0784488,-0.094748l0 -1.02552c0,-0.0478543 0.0195669,-0.0913504 0.0510787,-0.122862 0.0315079,-0.0315157 0.0750039,-0.0510787 0.122858,-0.0510787zm0.0945748 0.0793622c-0.0242795,-0.0242835 -0.0577638,-0.0393622 -0.0945748,-0.0393622 -0.036811,0 -0.0702953,0.0150787 -0.0945748,0.0393622 -0.0242835,0.0242835 -0.0393622,0.0577677 -0.0393622,0.0945787l0 1.03527 0 0.000153543c-3.93701e-006,0.00620472 -0.00288583,0.012315 -0.00829921,0.0162205l-5.90551e-005 -4.72441e-005c-0.031248,0.0225354 -0.0569409,0.0522835 -0.0746181,0.0867913 -0.0169764,0.0331378 -0.0265591,0.0708268 -0.0265591,0.110866 0,0.0672283 0.0272559,0.128098 0.071311,0.172154 0.0440591,0.0440591 0.104929,0.071311 0.172161,0.071311 0.0672323,0 0.128102,-0.027252 0.172161,-0.071311 0.0440551,-0.0440551 0.071311,-0.104925 0.071311,-0.172154 0,-0.0400394 -0.00958268,-0.0777283 -0.0265591,-0.110866 -0.0174331,-0.0340276 -0.0426575,-0.0634291 -0.0733189,-0.0858465 -0.0057874,-0.00350787 -0.00965748,-0.00985827 -0.00965748,-0.0171181l0 -1.03543c0,-0.036811 -0.0150787,-0.0702953 -0.0393622,-0.0945787z"/><path class="fil1" d="M1.16667 1.54868c0.050685,0 0.0965748,0.0205512 0.129791,0.0537598 0.0332087,0.0332165 0.0537598,0.0791102 0.0537598,0.129791 0,0.050685 -0.0205472,0.0965748 -0.0537638,0.129791 -0.0332087,0.0332165 -0.0791063,0.0537638 -0.129787,0.0537638 -0.0506811,0 -0.0965787,-0.0205472 -0.129787,-0.0537638 -0.0332165,-0.0332165 -0.0537638,-0.0791063 -0.0537638,-0.129791 0,-0.0506811 0.0205512,-0.0965748 0.0537598,-0.129791 0.0332165,-0.0332087 0.0791063,-0.0537598 0.129791,-0.0537598zm0.101508 0.0820433c-0.0259764,-0.0259724 -0.0618661,-0.0420433 -0.101508,-0.0420433 -0.0396417,0 -0.0755315,0.0160709 -0.101508,0.0420433 -0.0259724,0.0259764 -0.0420433,0.0618701 -0.0420433,0.101508 0,0.0396417 0.0160709,0.0755315 0.0420472,0.101508 0.0259724,0.0259764 0.0618661,0.0420472 0.101504,0.0420472 0.0396378,0 0.0755315,-0.0160709 0.101504,-0.0420472 0.0259764,-0.0259764 0.0420472,-0.0618661 0.0420472,-0.101508 0,-0.0396378 -0.0160709,-0.0755315 -0.0420433,-0.101508z"/><path class="fil1" d="M1.18667 0.662661c0,-0.0110433 -0.00895669,-0.02 -0.02,-0.02 -0.0110433,0 -0.02,0.00895669 -0.02,0.02l0 0.906024c0,0.0110433 0.00895669,0.02 0.02,0.02 0.0110433,0 0.02,-0.00895669 0.02,-0.02l0 -0.906024z"/><path class="fil1" d="M1.3206 0.494409c-0.0110433,0 -0.02,0.00895669 -0.02,0.02 0,0.0110433 0.00895669,0.02 0.02,0.02l0.0675748 0c0.0110433,0 0.02,-0.00895669 0.02,-0.02 0,-0.0110433 -0.00895669,-0.02 -0.02,-0.02l-0.0675748 0z"/><path class="fil1" d="M1.3206 0.654276c-0.0110433,0 -0.02,0.00895669 -0.02,0.02 0,0.0110433 0.00895669,0.02 0.02,0.02l0.0675748 0c0.0110433,0 0.02,-0.00895669 0.02,-0.02 0,-0.0110433 -0.00895669,-0.02 -0.02,-0.02l-0.0675748 0z"/><path class="fil1" d="M1.3206 0.814142c-0.0110433,0 -0.02,0.00895669 -0.02,0.02 0,0.0110433 0.00895669,0.02 0.02,0.02l0.0675748 0c0.0110433,0 0.02,-0.00895669 0.02,-0.02 0,-0.0110433 -0.00895669,-0.02 -0.02,-0.02l-0.0675748 0z"/><path class="fil1" d="M1.3206 0.974008c-0.0110433,0 -0.02,0.00895669 -0.02,0.02 0,0.0110433 0.00895669,0.02 0.02,0.02l0.0675748 0c0.0110433,0 0.02,-0.00895669 0.02,-0.02 0,-0.0110433 -0.00895669,-0.02 -0.02,-0.02l-0.0675748 0z"/><path class="fil1" d="M1.3206 1.13387c-0.0110433,0 -0.02,0.00895669 -0.02,0.02 0,0.0110433 0.00895669,0.02 0.02,0.02l0.0675748 0c0.0110433,0 0.02,-0.00895669 0.02,-0.02 0,-0.0110433 -0.00895669,-0.02 -0.02,-0.02l-0.0675748 0z"/><path class="fil1" d="M1.3206 1.29374c-0.0110433,0 -0.02,0.00895669 -0.02,0.02 0,0.0110433 0.00895669,0.02 0.02,0.02l0.0675748 0c0.0110433,0 0.02,-0.00895669 0.02,-0.02 0,-0.0110433 -0.00895669,-0.02 -0.02,-0.02l-0.0675748 0z"/><path class="fil1" d="M1.3206 1.4536c-0.0110433,0 -0.02,0.00895669 -0.02,0.02 0,0.0110433 0.00895669,0.02 0.02,0.02l0.0675748 0c0.0110433,0 0.02,-0.00895669 0.02,-0.02 0,-0.0110433 -0.00895669,-0.02 -0.02,-0.02l-0.0675748 0z"/><path class="fil1" d="M1.16667 0.391106c0.0220591,0 0.0420394,0.00894488 0.0564961,0.0234016 0.0144567,0.0144567 0.0234016,0.0344331 0.0234016,0.0564921 0,0.0220591 -0.00894488,0.0420354 -0.0234016,0.0564921 -0.000405512,0.000405512 -0.000826772,0.000791339 -0.00125984,0.00115748 -0.0143583,0.0137756 -0.0338268,0.0222441 -0.0552362,0.0222441 -0.0220039,0 -0.0419567,-0.00894488 -0.0564173,-0.0234016l-7.48031e-005 3.93701e-006 -3.93701e-006 -3.93701e-006c-0.0144567,-0.0144567 -0.0234016,-0.0344331 -0.0234016,-0.0564921 0,-0.0220591 0.00894488,-0.0420354 0.0234016,-0.0564921 0.0144567,-0.0144567 0.034437,-0.0234016 0.0564961,-0.0234016zm0.0282126 0.051685c-0.00721654,-0.00721654 -0.0171969,-0.011685 -0.0282126,-0.011685 -0.0110157,0 -0.0209961,0.0044685 -0.0282126,0.011685 -0.00721654,0.00721654 -0.011685,0.0171929 -0.011685,0.0282087 0,0.0110157 0.0044685,0.0209921 0.011685,0.0282087l-3.93701e-005 3.93701e-005c0.0072126,0.00719291 0.0172087,0.0116457 0.028252,0.0116457 0.0106142,0 0.0202559,-0.00411024 0.0273937,-0.010815 0.000259843,-0.000295276 0.000535433,-0.000586614 0.000818898,-0.000870079 0.00721654,-0.00721654 0.011685,-0.0171929 0.011685,-0.0282087 0,-0.0110157 -0.0044685,-0.0209921 -0.011685,-0.0282087z"/></g><text x="0" y="17.33333" fill="#000000" font-size="5px" font-weight="bold" font-family="'Helvetica Neue', Helvetica, Arial-Unicode, Arial, Sans-serif">Created by Muhammad Shabraiz</text><text x="0" y="22.33333" fill="#000000" font-size="5px" font-weight="bold" font-family="'Helvetica Neue', Helvetica, Arial-Unicode, Arial, Sans-serif">from the Noun Project</text></svg>