<svg width="100" height="100" viewBox="0 0 100 100" fill="none" xmlns="http://www.w3.org/2000/svg">
<circle cx="50" cy="50" r="50" fill="#D5E3E0"/>
<path d="M49.9997 29.3555C38.5982 29.3555 29.3555 38.5982 29.3555 49.9997C29.3555 61.4012 38.5982 70.644 49.9997 70.644C61.4012 70.644 70.644 61.4012 70.644 49.9997C70.644 38.5982 61.4012 29.3555 49.9997 29.3555Z" fill="#4FAB58"/>
<path d="M63.2915 34.2085C66.3177 37.8 68.1442 42.4357 68.1442 47.5C68.1442 58.9015 58.9015 68.1442 47.5 68.1442C42.4357 68.1442 37.8002 66.3177 34.2085 63.2915C37.9955 67.786 43.6627 70.6442 50 70.6442C61.4015 70.6442 70.6442 61.4015 70.6442 50C70.6442 43.6627 67.786 37.9952 63.2915 34.2085Z" fill="#469D77"/>
<path d="M63.9577 34.7925C67.3325 38.4675 69.394 43.3675 69.394 48.75C69.394 60.1515 60.1512 69.3942 48.7497 69.3942C43.367 69.3942 38.467 67.3325 34.792 63.9577C38.5655 68.067 43.981 70.6442 49.9997 70.6442C61.4012 70.6442 70.644 61.4015 70.644 50C70.6442 43.9812 68.067 38.566 63.9577 34.7925Z" fill="#2A8F63"/>
<path d="M70.1075 45.3052L75.1265 40.8774C75.8822 40.2107 76.0635 39.1039 75.5592 38.2309L72.89 33.6072C72.3862 32.7344 71.337 32.3379 70.3817 32.6589L63.981 34.8107C66.9762 37.5694 69.1535 41.2024 70.1075 45.3052Z" fill="#2A8F63"/>
<path d="M24.873 40.8777L29.892 45.3054C30.846 41.2029 33.0235 37.5699 36.0188 34.8112L29.618 32.6594C28.6628 32.3384 27.6135 32.7349 27.1098 33.6077L24.44 38.2312C23.936 39.1042 24.1173 40.2109 24.873 40.8777Z" fill="#4FAB58"/>
<path d="M49.9998 29.3558C52.1031 29.3558 54.1326 29.6706 56.0446 30.2553L54.7448 23.8196C54.5453 22.8318 53.6773 22.1216 52.6693 22.1216H47.3303C46.3226 22.1216 45.4543 22.8318 45.2548 23.8196L43.9551 30.2553C45.8671 29.6703 47.8966 29.3558 49.9998 29.3558Z" fill="#4FAB58"/>
<path d="M74.9636 58.8391L70.1341 54.5786C69.2131 58.6461 67.0911 62.2576 64.1606 65.0211L70.2189 67.0579C71.1741 67.3789 72.2234 66.9824 72.7271 66.1094L75.3967 61.4856C75.9004 60.6129 75.7194 59.5061 74.9636 58.8391Z" fill="#2A8F63"/>
<path d="M49.9998 70.6436C47.8966 70.6436 45.8671 70.3289 43.9551 69.7441L45.2548 76.1799C45.4543 77.1676 46.3223 77.8779 47.3303 77.8779H52.6693C53.6771 77.8779 54.5453 77.1676 54.7448 76.1799L56.0446 69.7441C54.1326 70.3291 52.1031 70.6436 49.9998 70.6436Z" fill="#2A8F63"/>
<path d="M29.8656 54.5786L25.0361 58.8391C24.2803 59.5061 24.0991 60.6129 24.6033 61.4856L27.2728 66.1094C27.7766 66.9824 28.8258 67.3789 29.7811 67.0579L35.8393 65.0211C32.9086 62.2574 30.7866 58.6461 29.8656 54.5786Z" fill="#4FAB58"/>
<path d="M30.855 50.5C30.58 50.5 30.355 50.275 30.355 50C30.355 49.7247 30.58 49.5 30.855 49.5C31.13 49.5 31.3525 49.7225 31.355 49.9975V50C31.355 50.275 31.1325 50.5 30.855 50.5ZM30.96 48.505C30.9425 48.505 30.925 48.5025 30.9075 48.5025C30.775 48.4875 30.655 48.4225 30.57 48.32C30.4875 48.215 30.4475 48.0852 30.4625 47.9525C30.9625 43.1525 33.2175 38.715 36.8125 35.4525C40.435 32.165 45.1175 30.3575 50 30.355C50.275 30.355 50.5 30.5797 50.5 30.8575C50.5 31.1325 50.275 31.355 50 31.355C40.4175 31.355 32.445 38.535 31.4575 48.055C31.4575 48.0575 31.455 48.0575 31.455 48.0575C31.43 48.3125 31.215 48.505 30.96 48.505Z" fill="#7DBA56"/>
<path d="M49.9996 35.8389C42.1789 35.8389 35.8389 42.1789 35.8389 49.9996C35.8389 57.8204 42.1789 64.1604 49.9996 64.1604C57.8204 64.1604 64.1604 57.8204 64.1604 49.9996C64.1604 42.1789 57.8204 35.8389 49.9996 35.8389Z" fill="#F2F3F4"/>
<path d="M58.685 38.8145C60.5497 41.2127 61.6605 44.2265 61.6605 47.4997C61.6605 55.3205 55.3205 61.6605 47.4997 61.6605C44.2265 61.6605 41.2127 60.55 38.8145 58.685C41.4055 62.0167 45.4522 64.1605 49.9997 64.1605C57.8205 64.1605 64.1605 57.8205 64.1605 49.9997C64.1605 45.4522 62.0167 41.4055 58.685 38.8145Z" fill="#D5E3E0"/>
<path d="M36.834 55.2241C38.913 60.4591 44.0242 64.1606 49.9997 64.1606C55.9752 64.1606 61.0865 60.4594 63.1655 55.2241H36.834Z" fill="#8E6648"/>
<path d="M59.3699 55.2241C56.8432 59.0991 52.4707 61.6606 47.4997 61.6606C44.2267 61.6606 41.2129 60.5501 38.8149 58.6854C41.4057 62.0171 45.4524 64.1606 49.9997 64.1606C55.9752 64.1606 61.0864 60.4594 63.1654 55.2241H59.3699Z" fill="#744E31"/>
<path d="M50 62.6465C49.6547 62.6465 49.375 62.3667 49.375 62.0215V47.856C49.375 47.5107 49.6547 47.231 50 47.231C50.3453 47.231 50.625 47.5107 50.625 47.856V62.0215C50.625 62.3667 50.3453 62.6465 50 62.6465Z" fill="#2A8F63"/>
<path d="M50 60.5259C49.8343 60.5259 49.6753 60.4599 49.558 60.3429L46.669 57.4536C46.4248 57.2094 46.4248 56.8137 46.669 56.5699C46.913 56.3257 47.309 56.3257 47.5528 56.5699L50 59.0171L52.4473 56.5699C52.6915 56.3257 53.087 56.3257 53.331 56.5699C53.575 56.8142 53.5753 57.2097 53.331 57.4536L50.4418 60.3429C50.3248 60.4599 50.1658 60.5259 50 60.5259Z" fill="#2A8F63"/>
<path d="M50 55.0441C49.84 55.0441 49.68 54.9831 49.558 54.8611L42.9947 48.2979C42.7505 48.0536 42.7505 47.6581 42.9947 47.4141C43.2387 47.1699 43.6347 47.1699 43.8785 47.4141L50 53.5354L56.1212 47.4141C56.3655 47.1699 56.761 47.1699 57.005 47.4141C57.249 47.6584 57.2492 48.0539 57.005 48.2979L50.4417 54.8611C50.3197 54.9831 50.16 55.0441 50 55.0441Z" fill="#2A8F63"/>
<path d="M42.4437 51.8716C42.1812 51.8814 41.9722 52.0901 41.9624 52.3529C41.9277 53.2966 42.0062 55.5049 43.3444 56.8434C44.6829 58.1819 46.8909 58.2601 47.8349 58.2254C48.0974 58.2156 48.3064 58.0069 48.3162 57.7441C48.3509 56.8004 48.2724 54.5921 46.9342 53.2536C45.5954 51.9154 43.3874 51.8369 42.4437 51.8716Z" fill="#4FAB58"/>
<path d="M46.9337 53.2536C46.7197 53.0396 46.4834 52.8579 46.2337 52.7036C47.0442 54.0159 47.0949 55.7011 47.0659 56.4939C47.0562 56.7564 46.8474 56.9654 46.5847 56.9751C45.7917 57.0041 44.1067 56.9536 42.7944 56.1429C42.9487 56.3926 43.1304 56.6289 43.3444 56.8429C44.6829 58.1814 46.8909 58.2596 47.8349 58.2249C48.0974 58.2151 48.3064 58.0064 48.3162 57.7436C48.3504 56.8004 48.2722 54.5921 46.9337 53.2536Z" fill="#469D77"/>
<path d="M57.5566 51.8716C57.8191 51.8814 58.0281 52.0901 58.0379 52.3529C58.0726 53.2966 57.9941 55.5049 56.6559 56.8434C55.3174 58.1819 53.1094 58.2601 52.1654 58.2254C51.9029 58.2156 51.6939 58.0069 51.6841 57.7441C51.6494 56.8004 51.7279 54.5921 53.0661 53.2536C54.4049 51.9154 56.6129 51.8369 57.5566 51.8716Z" fill="#4FAB58"/>
<path d="M58.0381 52.3528C58.0283 52.0903 57.8196 51.8813 57.5568 51.8716C57.3513 51.8641 57.0861 51.8618 56.7828 51.8768C56.7288 52.9666 56.4531 54.5461 55.4061 55.5931C54.3591 56.6401 52.7796 56.9161 51.6898 56.9698C51.6748 57.2731 51.6771 57.5386 51.6846 57.7438C51.6943 58.0063 51.9031 58.2153 52.1658 58.2251C53.1096 58.2598 55.3178 58.1816 56.6563 56.8431C57.9946 55.5048 58.0728 53.2966 58.0381 52.3528Z" fill="#469D77"/>
<path d="M49.6671 49.879C49.8571 50.0493 50.1426 50.0493 50.3326 49.879C51.2349 49.0713 53.6604 46.631 53.6604 43.7463C53.6604 40.8615 51.2349 38.4213 50.3326 37.6135C50.1426 37.4433 49.8571 37.4433 49.6671 37.6135C48.7649 38.4213 46.3394 40.8615 46.3394 43.7463C46.3394 46.631 48.7649 49.071 49.6671 49.879Z" fill="#4FAB58"/>
<path d="M50.3326 37.6131C50.3043 37.5878 50.2741 37.5666 50.2423 37.5488C51.2548 38.7258 52.4103 40.5051 52.4103 42.4961C52.4103 45.3808 49.9848 47.8211 49.0826 48.6288C48.9206 48.7738 48.6896 48.7951 48.5073 48.6931C48.9618 49.2213 49.3876 49.6286 49.6671 49.8788C49.8571 50.0491 50.1426 50.0491 50.3326 49.8788C51.2348 49.0711 53.6603 46.6308 53.6603 43.7461C53.6603 40.8611 51.2348 38.4211 50.3326 37.6131Z" fill="#469D77"/>
<path d="M60.5166 43.4209C60.7791 43.4307 60.9881 43.6394 60.9978 43.9022C61.0326 44.8459 60.9541 47.0542 59.6158 48.3927C58.2773 49.7312 56.0693 49.8094 55.1253 49.7747C54.8628 49.7649 54.6538 49.5562 54.6441 49.2934C54.6093 48.3497 54.6878 46.1414 56.0261 44.8029C57.3646 43.4647 59.5728 43.3862 60.5166 43.4209Z" fill="#4FAB58"/>
<path d="M60.998 43.9021C60.9883 43.6396 60.7795 43.4306 60.5168 43.4209C60.3113 43.4134 60.046 43.4111 59.7428 43.4261C59.6888 44.5159 59.413 46.0954 58.366 47.1424C57.319 48.1894 55.7395 48.4654 54.6498 48.5191C54.6348 48.8224 54.637 49.0879 54.6445 49.2931C54.6543 49.5556 54.863 49.7646 55.1258 49.7744C56.0695 49.8091 58.2778 49.7309 59.6163 48.3924C60.9548 47.0539 61.0328 44.8459 60.998 43.9021Z" fill="#469D77"/>
<path d="M39.4832 43.4209C39.2207 43.4307 39.0117 43.6394 39.002 43.9022C38.9672 44.8459 39.0457 47.0542 40.384 48.3927C41.7225 49.7312 43.9305 49.8094 44.8745 49.7747C45.137 49.7649 45.346 49.5562 45.3557 49.2934C45.3905 48.3497 45.312 46.1414 43.9737 44.8029C42.6352 43.4647 40.427 43.3862 39.4832 43.4209Z" fill="#4FAB58"/>
<path d="M43.9732 44.8029C43.7592 44.5889 43.523 44.4072 43.2732 44.2529C44.0837 45.5652 44.1345 47.2504 44.1055 48.0432C44.0957 48.3057 43.887 48.5147 43.6242 48.5244C42.8312 48.5534 41.1462 48.5029 39.834 47.6924C39.9882 47.9422 40.17 48.1784 40.384 48.3924C41.7225 49.7309 43.9305 49.8092 44.8745 49.7744C45.137 49.7647 45.346 49.5559 45.3557 49.2932C45.39 48.3497 45.3117 46.1414 43.9732 44.8029Z" fill="#469D77"/>
</svg>
